<?xml version="1.0" encoding="UTF-8"?>
<svg id="Layer_2" data-name="Layer 2" xmlns="http://www.w3.org/2000/svg" viewBox="0 0 854.58 163.61">
  <defs>
    <style>
      .cls-1 {
        fill: #000;
      }

      .cls-1, .cls-2 {
        stroke-width: 0px;
      }

      .cls-2 {
        fill: #32cd32;
      }
    </style>
  </defs>
  <g id="Layer_1-2" data-name="Layer 1">
    <path class="cls-2" d="M193.45,88.49c-6.43-4.22-14.13-6.68-22.41-6.68h23.79L211.75,0H40.9c-2.46,0-4.87.22-7.21.64-8.41,1.49-15.92,5.55-21.71,11.35C4.58,19.38,0,29.61,0,40.9c0,14.24,7.28,26.78,18.32,34.1,6.47,4.3,14.24,6.8,22.58,6.8h-23.99L0,163.6h0s171.04,0,171.04,0c11.3,0,21.52-4.58,28.92-11.98,7.4-7.4,11.98-17.62,11.98-28.92,0-14.32-7.36-26.91-18.5-34.21ZM95.64,147.43l13.57-65.62h-39.6L122.78,16.18l-13.57,65.63h39.59l-53.16,65.62Z"/>
    <g>
      <path class="cls-1" d="M246.84,109.16v-1.19h37.48v1.19c0,7.84,13.8,16.87,32.54,16.87s32.54-6.47,32.54-14.65c0-20.79-99.16-.34-99.16-51.97,0-27.43,26.41-44.3,65.94-44.3s67.3,19.76,67.3,49.41v.68h-36.29v-.68c0-8.52-12.1-16.87-30.67-16.87-17.55,0-28.79,5.28-28.79,12.61,0,21.13,99.16-3.92,99.16,49.41,0,30.33-29.48,48.9-69.86,48.9s-70.2-20.28-70.2-49.41Z"/>
      <path class="cls-1" d="M403.08,99.62v-46.85h37.48v44.47c0,16.7,11.93,28.79,28.79,28.79s29.14-12.27,29.14-29.3v-43.96h37.48v102.23h-33.39l-2.9-14.99h-.51c-10.22,11.25-24.88,17.89-42.25,17.89-31.69,0-53.84-23.85-53.84-58.27Z"/>
      <path class="cls-1" d="M600.37,141.19h-.85l-2.9,13.8h-33.39V18.69h37.48v47.37h1.36c8.52-8.01,22.32-15.85,41.57-15.85,31.86,0,56.91,22.66,56.91,54.01v.34c0,30.67-25.05,52.99-59.12,52.99-18.06,0-32.54-6.3-41.06-16.36ZM632.06,124.49c18.23,0,31.01-8.18,31.01-19.93v-.34c0-11.59-12.78-19.76-31.01-19.76s-31.35,8.18-31.35,19.76v.34c0,11.76,12.95,19.93,31.35,19.93Z"/>
      <path class="cls-1" d="M746.38,102.68l-40.89-49.92h44.98l27.6,34.25h3.07l27.6-34.25h44.98l-40.89,49.92,41.74,52.31h-44.98l-28.45-36.12h-3.07l-28.45,36.12h-44.98l41.74-52.31Z"/>
    </g>
  </g>
</svg>