<?xml version="1.0" encoding="UTF-8"?>
<svg id="Layer_2" data-name="Layer 2" xmlns="http://www.w3.org/2000/svg" version="1.1" viewBox="0 0 854.6 163.6">
  <defs>
    <style>
      .cls-1 {
        fill: #f7f7f7;
      }

      .cls-1, .cls-2 {
        stroke-width: 0px;
      }

      .cls-2 {
        fill: #32cd32;
      }
    </style>
  </defs>
  <g id="Layer_1-2" data-name="Layer 1-2">
    <path class="cls-2" d="M193.4,88.5c-6.4-4.2-14.1-6.7-22.4-6.7h23.8L211.8,0H40.9c-2.5,0-4.9.2-7.2.6-8.4,1.5-15.9,5.6-21.7,11.4C4.6,19.4,0,29.6,0,40.9s7.3,26.8,18.3,34.1c6.5,4.3,14.2,6.8,22.6,6.8h-24L0,163.6h171c11.3,0,21.5-4.6,28.9-12s12-17.6,12-28.9-7.4-26.9-18.5-34.2h0ZM95.6,147.4l13.6-65.6h-39.6L122.8,16.2l-13.6,65.6h39.6l-53.2,65.6Z"/>
    <g>
      <path class="cls-1" d="M246.8,109.2v-1.2h37.5v1.2c0,7.8,13.8,16.9,32.5,16.9s32.5-6.5,32.5-14.7c0-20.8-99.2-.3-99.2-52s26.4-44.3,65.9-44.3,67.3,19.8,67.3,49.4v.7h-36.3v-.7c0-8.5-12.1-16.9-30.7-16.9s-28.8,5.3-28.8,12.6c0,21.1,99.2-3.9,99.2,49.4s-29.5,48.9-69.9,48.9-70.2-20.3-70.2-49.4h0Z"/>
      <path class="cls-1" d="M403.1,99.6v-46.8h37.5v44.5c0,16.7,11.9,28.8,28.8,28.8s29.1-12.3,29.1-29.3v-44h37.5v102.2h-33.4l-2.9-15h-.5c-10.2,11.2-24.9,17.9-42.2,17.9-31.7,0-53.8-23.9-53.8-58.3h0Z"/>
      <path class="cls-1" d="M600.4,141.2h-.8l-2.9,13.8h-33.4V18.7h37.5v47.4h1.4c8.5-8,22.3-15.8,41.6-15.8,31.9,0,56.9,22.7,56.9,54v.3c0,30.7-25,53-59.1,53s-32.5-6.3-41.1-16.4h0ZM632.1,124.5c18.2,0,31-8.2,31-19.9v-.3c0-11.6-12.8-19.8-31-19.8s-31.3,8.2-31.3,19.8v.3c0,11.8,13,19.9,31.3,19.9Z"/>
      <path class="cls-1" d="M746.4,102.7l-40.9-49.9h45l27.6,34.2h3.1l27.6-34.2h45l-40.9,49.9,41.7,52.3h-45l-28.5-36.1h-3.1l-28.5,36.1h-45l41.7-52.3h0Z"/>
    </g>
  </g>
</svg>